<svg width="148" height="28" viewBox="0 0 148 28" fill="none" xmlns="http://www.w3.org/2000/svg">
<path d="M11.1284 12.564C12.4482 12.5644 13.7551 12.3048 14.9746 11.7998C16.1941 11.2949 17.3021 10.5546 18.2355 9.62122C19.1689 8.68783 19.9094 7.57964 20.4145 6.35995C20.9197 5.14025 21.1797 3.83293 21.1797 2.5127H11.1284V12.564Z" fill="#7557D3"/>
<path d="M0 13.6411C-7.44592e-08 14.9613 0.260017 16.2687 0.765183 17.4884C1.27035 18.7081 2.01074 19.8163 2.94413 20.7496C3.87752 21.683 4.9856 22.4233 6.20506 22.9283C7.42451 23.4332 8.73149 23.6928 10.0513 23.6924V23.6924V13.6411H0Z" fill="#7557D3"/>
<path d="M11.1284 13.6411V23.6924H21.1797C21.1797 22.3722 20.9197 21.0649 20.4145 19.8452C19.9094 18.6255 19.1689 17.5173 18.2355 16.5839C17.3021 15.6505 16.1941 14.9102 14.9746 14.4053C13.7551 13.9003 12.4482 13.6407 11.1284 13.6411Z" fill="#7557D3"/>
<path d="M0 12.564H10.0513V2.5127C8.73149 2.51225 7.42451 2.77191 6.20506 3.27684C4.9856 3.78176 3.87752 4.52206 2.94413 5.45545C2.01074 6.38884 1.27035 7.49705 0.765183 8.71675C0.260017 9.93644 -7.44591e-08 11.2437 0 12.564V12.564Z" fill="#7557D3"/>
<path d="M22.2563 2.5127C22.2563 5.17846 23.3153 7.73505 25.2003 9.62003C27.0853 11.505 29.6419 12.564 32.3076 12.564V12.564V2.5127H22.2563Z" fill="#7557D3"/>
<path d="M22.2563 23.6924H32.3076V13.6411C29.6419 13.6411 27.0853 14.7001 25.2003 16.5851C23.3153 18.47 22.2563 21.0266 22.2563 23.6924V23.6924Z" fill="#7557D3"/>
<path d="M48.0474 19.3821C50.5785 19.3821 52.3729 18.4854 54.1301 16.7654L56.2591 18.8154C54.289 21.0487 51.8119 22.6154 48.0981 22.6154C42.0795 22.6154 38.0513 18.4854 38.0513 13.2821C38.0513 8.07873 42.2045 3.94873 47.75 3.94873C53.2076 3.94873 57.0769 7.99206 57.0769 12.9287C57.0751 13.4488 57.0173 13.9673 56.9046 14.4754H42.0997C42.485 17.3187 44.8573 19.3821 48.0474 19.3821ZM42.2248 11.5021H52.9474C52.4439 9.00872 50.4196 7.20207 47.7331 7.20207C46.4601 7.20981 45.2264 7.6373 44.2283 8.4165C43.2301 9.19571 42.5249 10.2818 42.2248 11.5021V11.5021Z" fill="#7557D3"/>
<path d="M76.1027 11.2216V22.2564H72.1699V11.556C72.1699 9.13842 70.5327 7.44975 68.1603 7.44975C65.7112 7.44975 63.5393 9.48619 63.5393 12.402V22.2564H59.5898V4.36337H63.5393V6.7442C64.1587 5.88143 64.9738 5.17813 65.9178 4.69214C66.8617 4.20615 67.9074 3.95136 68.969 3.94873C73.2625 3.94873 76.1027 6.81443 76.1027 11.2216Z" fill="#7557D3"/>
<path d="M90.2936 4.30762L85.5967 17.1965L80.9401 4.30762H76.8203L83.6073 22.1992L81.4903 27.9999H85.4323L94.4101 4.30762H90.2936Z" fill="#7557D3"/>
<path d="M102.826 3.94969C104.025 3.93136 105.212 4.17655 106.303 4.66764C107.395 5.15873 108.363 5.88352 109.138 6.78992V4.36305H113.077V22.2012H109.138V19.7943C108.359 20.6944 107.389 21.4135 106.298 21.9009C105.208 22.3882 104.023 22.6319 102.826 22.6145C97.7617 22.6145 94.0513 18.4842 94.0513 13.2804C94.0513 8.07669 97.7617 3.94969 102.826 3.94969ZM103.606 19.1043C106.762 19.1043 109.138 16.524 109.138 13.2738C109.138 10.0235 106.785 7.4433 103.606 7.4433C100.427 7.4433 98.0574 10.0402 98.0574 13.2738C98.0574 16.5074 100.45 19.1043 103.606 19.1043Z" fill="#7557D3"/>
<path d="M143.888 4.363V6.78609C143.096 5.88057 142.109 5.15666 140.997 4.66627C139.885 4.17589 138.674 3.93118 137.453 3.94971C132.293 3.94971 128.513 8.09595 128.513 13.2821C128.513 18.4682 132.279 22.6145 137.453 22.6145C138.673 22.6323 139.882 22.3887 140.994 21.9008C142.106 21.4129 143.094 20.6927 143.888 19.7914V22.1979H147.897V4.363H143.888ZM138.251 19.1015C135.032 19.1015 132.594 16.5218 132.594 13.2721C132.594 10.0224 134.991 7.44268 138.251 7.44268C141.511 7.44268 143.888 10.0391 143.888 13.2721C143.888 16.5051 141.467 19.1015 138.251 19.1015Z" fill="#7557D3"/>
<path d="M127.436 19.6201V19.1711H125.753C123.491 19.1711 122.623 18.2196 122.623 16.2328V7.74283H127.211V4.28519H122.636V0H118.678V4.28854H115.231V7.74619H118.688V16.4104C118.688 20.5917 120.771 22.6154 124.558 22.6154C124.673 22.6154 124.79 22.6154 124.895 22.6154H127.433V19.6235L127.436 19.6201Z" fill="#7557D3"/>
</svg>
